<svg width="952" height="18" viewBox="0 0 952 18" fill="none" xmlns="http://www.w3.org/2000/svg">
<line x1="0.993091" y1="5.57471" x2="0.993091" y2="13.7644" stroke="#A1A1AA" stroke-width="0.682471"/>
<line x1="12.4389" y1="7.62207" x2="12.4389" y2="11.7169" stroke="#A1A1AA" stroke-width="0.682471"/>
<line x1="23.8847" y1="7.62207" x2="23.8847" y2="11.7169" stroke="#A1A1AA" stroke-width="0.682471"/>
<line x1="35.3304" y1="7.62207" x2="35.3304" y2="11.7169" stroke="#A1A1AA" stroke-width="0.682471"/>
<line x1="46.7762" y1="7.62207" x2="46.7762" y2="11.7169" stroke="#A1A1AA" stroke-width="0.682471"/>
<line x1="58.222" y1="5.57471" x2="58.222" y2="13.7644" stroke="#A1A1AA" stroke-width="0.682471"/>
<line x1="69.6678" y1="7.62207" x2="69.6678" y2="11.7169" stroke="#A1A1AA" stroke-width="0.682471"/>
<line x1="81.1136" y1="7.62207" x2="81.1136" y2="11.7169" stroke="#A1A1AA" stroke-width="0.682471"/>
<line x1="92.5594" y1="7.62207" x2="92.5594" y2="11.7169" stroke="#A1A1AA" stroke-width="0.682471"/>
<line x1="104.005" y1="7.62207" x2="104.005" y2="11.7169" stroke="#A1A1AA" stroke-width="0.682471"/>
<line x1="115.451" y1="5.57471" x2="115.451" y2="13.7644" stroke="#A1A1AA" stroke-width="0.682471"/>
<line x1="126.897" y1="7.62207" x2="126.897" y2="11.7169" stroke="#A1A1AA" stroke-width="0.682471"/>
<line x1="138.342" y1="7.62207" x2="138.342" y2="11.7169" stroke="#A1A1AA" stroke-width="0.682471"/>
<line x1="161.234" y1="5.57471" x2="161.234" y2="13.7644" stroke="#A1A1AA" stroke-width="0.682471"/>
<line x1="172.68" y1="7.62207" x2="172.68" y2="11.7169" stroke="#A1A1AA" stroke-width="0.682471"/>
<line x1="184.126" y1="7.62207" x2="184.126" y2="11.7169" stroke="#A1A1AA" stroke-width="0.682471"/>
<line x1="195.571" y1="7.62207" x2="195.571" y2="11.7169" stroke="#A1A1AA" stroke-width="0.682471"/>
<line x1="207.017" y1="7.62207" x2="207.017" y2="11.7169" stroke="#A1A1AA" stroke-width="0.682471"/>
<line x1="218.463" y1="5.57471" x2="218.463" y2="13.7644" stroke="#A1A1AA" stroke-width="0.682471"/>
<line x1="229.909" y1="7.62207" x2="229.909" y2="11.7169" stroke="#A1A1AA" stroke-width="0.682471"/>
<line x1="241.355" y1="7.62207" x2="241.355" y2="11.7169" stroke="#A1A1AA" stroke-width="0.682471"/>
<line x1="252.8" y1="7.62207" x2="252.8" y2="11.7169" stroke="#A1A1AA" stroke-width="0.682471"/>
<line x1="264.246" y1="7.62207" x2="264.246" y2="11.7169" stroke="#A1A1AA" stroke-width="0.682471"/>
<line x1="275.692" y1="5.57471" x2="275.692" y2="13.7644" stroke="#A1A1AA" stroke-width="0.682471"/>
<line x1="287.138" y1="7.62207" x2="287.138" y2="11.7169" stroke="#A1A1AA" stroke-width="0.682471"/>
<line x1="298.583" y1="7.62207" x2="298.583" y2="11.7169" stroke="#A1A1AA" stroke-width="0.682471"/>
<line x1="310.029" y1="7.62207" x2="310.029" y2="11.7169" stroke="#A1A1AA" stroke-width="0.682471"/>
<line x1="321.475" y1="7.62207" x2="321.475" y2="11.7169" stroke="#A1A1AA" stroke-width="0.682471"/>
<line x1="332.921" y1="5.57471" x2="332.921" y2="13.7644" stroke="#A1A1AA" stroke-width="0.682471"/>
<line x1="344.367" y1="7.62207" x2="344.367" y2="11.7169" stroke="#A1A1AA" stroke-width="0.682471"/>
<line x1="355.812" y1="7.62207" x2="355.812" y2="11.7169" stroke="#A1A1AA" stroke-width="0.682471"/>
<line x1="367.258" y1="7.62207" x2="367.258" y2="11.7169" stroke="#A1A1AA" stroke-width="0.682471"/>
<line x1="378.704" y1="7.62207" x2="378.704" y2="11.7169" stroke="#A1A1AA" stroke-width="0.682471"/>
<line x1="390.15" y1="5.57471" x2="390.15" y2="13.7644" stroke="#A1A1AA" stroke-width="0.682471"/>
<line x1="401.595" y1="7.62207" x2="401.595" y2="11.7169" stroke="#A1A1AA" stroke-width="0.682471"/>
<line x1="413.041" y1="7.62207" x2="413.041" y2="11.7169" stroke="#A1A1AA" stroke-width="0.682471"/>
<line x1="424.487" y1="7.62207" x2="424.487" y2="11.7169" stroke="#A1A1AA" stroke-width="0.682471"/>
<line x1="435.933" y1="7.62207" x2="435.933" y2="11.7169" stroke="#A1A1AA" stroke-width="0.682471"/>
<line x1="447.378" y1="5.57471" x2="447.378" y2="13.7644" stroke="#A1A1AA" stroke-width="0.682471"/>
<line x1="458.824" y1="7.62207" x2="458.824" y2="11.7169" stroke="#A1A1AA" stroke-width="0.682471"/>
<line x1="470.27" y1="7.62207" x2="470.27" y2="11.7169" stroke="#A1A1AA" stroke-width="0.682471"/>
<line x1="481.716" y1="7.62207" x2="481.716" y2="11.7169" stroke="#A1A1AA" stroke-width="0.682471"/>
<line x1="493.161" y1="7.62207" x2="493.161" y2="11.7169" stroke="#A1A1AA" stroke-width="0.682471"/>
<line x1="504.607" y1="5.57471" x2="504.607" y2="13.7644" stroke="#A1A1AA" stroke-width="0.682471"/>
<line x1="516.053" y1="7.62207" x2="516.053" y2="11.7169" stroke="#A1A1AA" stroke-width="0.682471"/>
<line x1="527.499" y1="7.62207" x2="527.499" y2="11.7169" stroke="#A1A1AA" stroke-width="0.682471"/>
<line x1="538.945" y1="7.62207" x2="538.945" y2="11.7169" stroke="#A1A1AA" stroke-width="0.682471"/>
<line x1="550.39" y1="7.62207" x2="550.39" y2="11.7169" stroke="#A1A1AA" stroke-width="0.682471"/>
<line x1="561.836" y1="5.57471" x2="561.836" y2="13.7644" stroke="#A1A1AA" stroke-width="0.682471"/>
<line x1="573.282" y1="7.62207" x2="573.282" y2="11.7169" stroke="#A1A1AA" stroke-width="0.682471"/>
<line x1="584.728" y1="7.62207" x2="584.728" y2="11.7169" stroke="#A1A1AA" stroke-width="0.682471"/>
<line x1="596.174" y1="7.62207" x2="596.174" y2="11.7169" stroke="#A1A1AA" stroke-width="0.682471"/>
<line x1="607.619" y1="7.62207" x2="607.619" y2="11.7169" stroke="#A1A1AA" stroke-width="0.682471"/>
<line x1="619.065" y1="5.57471" x2="619.065" y2="13.7644" stroke="#A1A1AA" stroke-width="0.682471"/>
<line x1="630.511" y1="7.62207" x2="630.511" y2="11.7169" stroke="#A1A1AA" stroke-width="0.682471"/>
<line x1="641.957" y1="7.62207" x2="641.957" y2="11.7169" stroke="#A1A1AA" stroke-width="0.682471"/>
<line x1="653.403" y1="7.62207" x2="653.403" y2="11.7169" stroke="#A1A1AA" stroke-width="0.682471"/>
<line x1="664.848" y1="7.62207" x2="664.848" y2="11.7169" stroke="#A1A1AA" stroke-width="0.682471"/>
<line x1="676.294" y1="5.57471" x2="676.294" y2="13.7644" stroke="#A1A1AA" stroke-width="0.682471"/>
<line x1="687.74" y1="7.62207" x2="687.74" y2="11.7169" stroke="#A1A1AA" stroke-width="0.682471"/>
<line x1="699.186" y1="7.62207" x2="699.186" y2="11.7169" stroke="#A1A1AA" stroke-width="0.682471"/>
<line x1="710.632" y1="7.62207" x2="710.632" y2="11.7169" stroke="#A1A1AA" stroke-width="0.682471"/>
<line x1="722.077" y1="7.62207" x2="722.077" y2="11.7169" stroke="#A1A1AA" stroke-width="0.682471"/>
<line x1="733.523" y1="5.57471" x2="733.523" y2="13.7644" stroke="#A1A1AA" stroke-width="0.682471"/>
<line x1="744.969" y1="7.62207" x2="744.969" y2="11.7169" stroke="#A1A1AA" stroke-width="0.682471"/>
<line x1="756.415" y1="7.62207" x2="756.415" y2="11.7169" stroke="#A1A1AA" stroke-width="0.682471"/>
<line x1="767.861" y1="7.62207" x2="767.861" y2="11.7169" stroke="#A1A1AA" stroke-width="0.682471"/>
<line x1="779.306" y1="7.62207" x2="779.306" y2="11.7169" stroke="#A1A1AA" stroke-width="0.682471"/>
<line x1="790.752" y1="5.57471" x2="790.752" y2="13.7644" stroke="#A1A1AA" stroke-width="0.682471"/>
<line x1="813.644" y1="7.62207" x2="813.644" y2="11.7169" stroke="#A1A1AA" stroke-width="0.682471"/>
<line x1="825.09" y1="7.62207" x2="825.09" y2="11.7169" stroke="#A1A1AA" stroke-width="0.682471"/>
<line x1="836.535" y1="7.62207" x2="836.535" y2="11.7169" stroke="#A1A1AA" stroke-width="0.682471"/>
<line x1="847.981" y1="5.57471" x2="847.981" y2="13.7644" stroke="#A1A1AA" stroke-width="0.682471"/>
<line x1="859.427" y1="7.62207" x2="859.427" y2="11.7169" stroke="#A1A1AA" stroke-width="0.682471"/>
<line x1="870.873" y1="7.62207" x2="870.873" y2="11.7169" stroke="#A1A1AA" stroke-width="0.682471"/>
<line x1="882.319" y1="7.62207" x2="882.319" y2="11.7169" stroke="#A1A1AA" stroke-width="0.682471"/>
<line x1="893.764" y1="7.62207" x2="893.764" y2="11.7169" stroke="#A1A1AA" stroke-width="0.682471"/>
<line x1="905.21" y1="5.57471" x2="905.21" y2="13.7644" stroke="#A1A1AA" stroke-width="0.682471"/>
<line x1="916.656" y1="7.62207" x2="916.656" y2="11.7169" stroke="#A1A1AA" stroke-width="0.682471"/>
<line x1="928.102" y1="7.62207" x2="928.102" y2="11.7169" stroke="#A1A1AA" stroke-width="0.682471"/>
<line x1="939.548" y1="7.62207" x2="939.548" y2="11.7169" stroke="#A1A1AA" stroke-width="0.682471"/>
<line x1="950.993" y1="7.62207" x2="950.993" y2="11.7169" stroke="#A1A1AA" stroke-width="0.682471"/>
<rect opacity="0.5" x="887.182" y="0.289551" width="16.3793" height="16.0801" rx="2.72988" fill="#FF68DE"/>
<rect opacity="0.5" x="750.688" y="1.62939" width="16.3793" height="16.0801" rx="2.72988" fill="#FF68DE"/>
<rect opacity="0.5" x="718.612" y="1.62939" width="16.3793" height="16.0801" rx="2.72988" fill="#FF68DE"/>
<rect opacity="0.5" x="699.503" y="1.62939" width="16.3793" height="16.0801" rx="2.72988" fill="#FF68DE"/>
<rect opacity="0.5" x="691.995" y="1.62939" width="16.3793" height="16.0801" rx="2.72988" fill="#FF68DE"/>
<rect opacity="0.5" x="686.536" y="1.62939" width="16.3793" height="16.0801" rx="2.72988" fill="#FF68DE"/>
<rect opacity="0.5" x="679.029" y="1.62939" width="16.3793" height="16.0801" rx="2.72988" fill="#FF68DE"/>
<rect opacity="0.5" x="673.569" y="1.62939" width="16.3793" height="16.0801" rx="2.72988" fill="#FF68DE"/>
<rect opacity="0.5" x="661.284" y="1.62939" width="16.3793" height="16.0801" rx="2.72988" fill="#FF68DE"/>
<rect opacity="0.5" x="653.095" y="1.62939" width="16.3793" height="16.0801" rx="2.72988" fill="#FF68DE"/>
<rect opacity="0.5" x="771.845" y="1.62939" width="16.3793" height="16.0801" rx="2.72988" fill="#FF68DE"/>
<rect opacity="0.3" x="524.79" y="1.62939" width="16.3793" height="16.0801" rx="2.72988" fill="#11C182"/>
<rect opacity="0.3" x="524.108" y="1.62939" width="16.3793" height="16.0801" rx="2.72988" fill="#11C182"/>
<rect opacity="0.3" x="522.743" y="1.62939" width="16.3793" height="16.0801" rx="2.72988" fill="#11C182"/>
<rect opacity="0.3" x="521.378" y="1.62939" width="16.3793" height="16.0801" rx="2.72988" fill="#11C182"/>
<rect opacity="0.3" x="519.33" y="1.62939" width="16.3793" height="16.0801" rx="2.72988" fill="#11C182"/>
<rect opacity="0.3" x="517.283" y="1.62939" width="16.3793" height="16.0801" rx="2.72988" fill="#11C182"/>
<rect opacity="0.3" x="545.264" y="1.62939" width="16.3793" height="16.0801" rx="2.72988" fill="#11C182"/>
<rect opacity="0.3" x="513.188" y="1.62939" width="16.3793" height="16.0801" rx="2.72988" fill="#11C182"/>
<rect opacity="0.3" x="512.506" y="1.62939" width="16.3793" height="16.0801" rx="2.72988" fill="#11C182"/>
<rect opacity="0.3" x="507.728" y="1.62939" width="16.3793" height="16.0801" rx="2.72988" fill="#11C182"/>
<rect opacity="0.3" x="506.363" y="1.62939" width="16.3793" height="16.0801" rx="2.72988" fill="#11C182"/>
<rect opacity="0.3" x="531.615" y="1.62939" width="16.3793" height="16.0801" rx="2.72988" fill="#11C182"/>
<rect opacity="0.3" x="492.031" y="1.62939" width="16.3793" height="16.0801" rx="2.72988" fill="#11C182"/>
<rect opacity="0.3" x="483.159" y="1.62939" width="16.3793" height="16.0801" rx="2.72988" fill="#11C182"/>
<rect opacity="0.3" x="462.685" y="1.62939" width="16.3793" height="16.0801" rx="2.72988" fill="#11C182"/>
<rect opacity="0.3" x="455.861" y="1.62939" width="16.3793" height="16.0801" rx="2.72988" fill="#11C182"/>
<rect opacity="0.3" x="447.671" y="1.62939" width="16.3793" height="16.0801" rx="2.72988" fill="#11C182"/>
<rect opacity="0.3" x="440.846" y="1.62939" width="16.3793" height="16.0801" rx="2.72988" fill="#11C182"/>
<rect opacity="0.3" x="439.481" y="1.62939" width="16.3793" height="16.0801" rx="2.72988" fill="#11C182"/>
<rect opacity="0.3" x="436.069" y="1.62939" width="16.3793" height="16.0801" rx="2.72988" fill="#11C182"/>
<rect opacity="0.3" x="435.386" y="1.62939" width="16.3793" height="16.0801" rx="2.72988" fill="#11C182"/>
<rect opacity="0.3" x="429.927" y="1.62939" width="16.3793" height="16.0801" rx="2.72988" fill="#11C182"/>
<rect opacity="0.3" x="422.419" y="1.62939" width="16.3793" height="16.0801" rx="2.72988" fill="#11C182"/>
<rect opacity="0.3" x="421.737" y="1.62939" width="16.3793" height="16.0801" rx="2.72988" fill="#11C182"/>
<rect opacity="0.3" x="420.372" y="1.62939" width="16.3793" height="16.0801" rx="2.72988" fill="#11C182"/>
<rect opacity="0.3" x="419.007" y="1.62939" width="16.3793" height="16.0801" rx="2.72988" fill="#11C182"/>
<rect opacity="0.3" x="416.96" y="1.62939" width="16.3793" height="16.0801" rx="2.72988" fill="#11C182"/>
<rect opacity="0.3" x="414.912" y="1.62939" width="16.3793" height="16.0801" rx="2.72988" fill="#11C182"/>
<rect opacity="0.3" x="413.547" y="1.62939" width="16.3793" height="16.0801" rx="2.72988" fill="#11C182"/>
<rect opacity="0.3" x="410.817" y="1.62939" width="16.3793" height="16.0801" rx="2.72988" fill="#11C182"/>
<rect opacity="0.3" x="405.358" y="1.62939" width="16.3793" height="16.0801" rx="2.72988" fill="#11C182"/>
<rect opacity="0.3" x="403.993" y="1.62939" width="16.3793" height="16.0801" rx="2.72988" fill="#11C182"/>
<rect opacity="0.3" x="400.58" y="1.62939" width="16.3793" height="16.0801" rx="2.72988" fill="#11C182"/>
<rect opacity="0.3" x="385.566" y="1.62939" width="16.3793" height="16.0801" rx="2.72988" fill="#11C182"/>
<rect opacity="0.3" x="384.883" y="1.62939" width="16.3793" height="16.0801" rx="2.72988" fill="#11C182"/>
<rect opacity="0.3" x="383.518" y="1.62939" width="16.3793" height="16.0801" rx="2.72988" fill="#11C182"/>
<rect opacity="0.3" x="380.106" y="1.62939" width="16.3793" height="16.0801" rx="2.72988" fill="#11C182"/>
<rect opacity="0.3" x="378.059" y="1.62939" width="16.3793" height="16.0801" rx="2.72988" fill="#11C182"/>
<rect opacity="0.3" x="378.059" y="1.62939" width="16.3793" height="16.0801" rx="2.72988" fill="#11C182"/>
<rect opacity="0.3" x="376.694" y="1.62939" width="16.3793" height="16.0801" rx="2.72988" fill="#11C182"/>
<rect opacity="0.3" x="372.599" y="1.62939" width="16.3793" height="16.0801" rx="2.72988" fill="#11C182"/>
<rect opacity="0.3" x="367.822" y="1.62939" width="16.3793" height="16.0801" rx="2.72988" fill="#11C182"/>
<rect opacity="0.3" x="367.139" y="1.62939" width="16.3793" height="16.0801" rx="2.72988" fill="#11C182"/>
<rect opacity="0.3" x="364.409" y="1.62939" width="16.3793" height="16.0801" rx="2.72988" fill="#11C182"/>
<rect opacity="0.3" x="359.632" y="1.62939" width="16.3793" height="16.0801" rx="2.72988" fill="#11C182"/>
<rect opacity="0.3" x="358.95" y="1.62939" width="16.3793" height="16.0801" rx="2.72988" fill="#11C182"/>
<rect opacity="0.3" x="357.585" y="1.62939" width="16.3793" height="16.0801" rx="2.72988" fill="#11C182"/>
<rect opacity="0.3" x="356.22" y="1.62939" width="16.3793" height="16.0801" rx="2.72988" fill="#11C182"/>
<rect opacity="0.3" x="354.855" y="1.62939" width="16.3793" height="16.0801" rx="2.72988" fill="#11C182"/>
<rect opacity="0.3" x="354.172" y="1.62939" width="16.3793" height="16.0801" rx="2.72988" fill="#11C182"/>
<rect opacity="0.3" x="352.125" y="1.62939" width="16.3793" height="16.0801" rx="2.72988" fill="#11C182"/>
<rect opacity="0.3" x="350.76" y="1.62939" width="16.3793" height="16.0801" rx="2.72988" fill="#11C182"/>
<rect opacity="0.3" x="348.03" y="1.62939" width="16.3793" height="16.0801" rx="2.72988" fill="#11C182"/>
<rect opacity="0.3" x="344.618" y="1.62939" width="16.3793" height="16.0801" rx="2.72988" fill="#11C182"/>
<rect opacity="0.3" x="343.935" y="1.62939" width="16.3793" height="16.0801" rx="2.72988" fill="#11C182"/>
<rect opacity="0.3" x="342.57" y="1.62939" width="16.3793" height="16.0801" rx="2.72988" fill="#11C182"/>
<rect opacity="0.3" x="341.205" y="1.62939" width="16.3793" height="16.0801" rx="2.72988" fill="#11C182"/>
<rect opacity="0.3" x="340.523" y="1.62939" width="16.3793" height="16.0801" rx="2.72988" fill="#11C182"/>
<rect opacity="0.3" x="335.063" y="1.62939" width="16.3793" height="16.0801" rx="2.72988" fill="#11C182"/>
<rect opacity="0.3" x="333.698" y="1.62939" width="16.3793" height="16.0801" rx="2.72988" fill="#11C182"/>
<rect opacity="0.3" x="330.286" y="1.62939" width="16.3793" height="16.0801" rx="2.72988" fill="#11C182"/>
<rect opacity="0.3" x="330.286" y="1.62939" width="16.3793" height="16.0801" rx="2.72988" fill="#11C182"/>
<rect opacity="0.3" x="329.603" y="1.62939" width="16.3793" height="16.0801" rx="2.72988" fill="#11C182"/>
<rect opacity="0.3" x="324.826" y="1.62939" width="16.3793" height="16.0801" rx="2.72988" fill="#11C182"/>
<rect opacity="0.3" x="319.366" y="1.62939" width="16.3793" height="16.0801" rx="2.72988" fill="#11C182"/>
<rect opacity="0.3" x="318.001" y="1.62939" width="16.3793" height="16.0801" rx="2.72988" fill="#11C182"/>
<rect opacity="0.3" x="316.636" y="1.62939" width="16.3793" height="16.0801" rx="2.72988" fill="#11C182"/>
<rect opacity="0.3" x="316.636" y="1.62939" width="16.3793" height="16.0801" rx="2.72988" fill="#11C182"/>
<rect opacity="0.3" x="313.224" y="1.62939" width="16.3793" height="16.0801" rx="2.72988" fill="#11C182"/>
<rect opacity="0.3" x="312.542" y="1.62939" width="16.3793" height="16.0801" rx="2.72988" fill="#11C182"/>
<rect opacity="0.3" x="311.177" y="1.62939" width="16.3793" height="16.0801" rx="2.72988" fill="#11C182"/>
<rect opacity="0.3" x="309.129" y="1.62939" width="16.3793" height="16.0801" rx="2.72988" fill="#11C182"/>
<rect opacity="0.3" x="308.447" y="1.62939" width="16.3793" height="16.0801" rx="2.72988" fill="#11C182"/>
<rect opacity="0.3" x="308.447" y="1.62939" width="16.3793" height="16.0801" rx="2.72988" fill="#11C182"/>
<rect opacity="0.3" x="288.655" y="1.62939" width="16.3793" height="16.0801" rx="2.72988" fill="#11C182"/>
<rect opacity="0.3" x="283.195" y="1.62939" width="16.3793" height="16.0801" rx="2.72988" fill="#11C182"/>
<rect opacity="0.3" x="281.83" y="1.62939" width="16.3793" height="16.0801" rx="2.72988" fill="#11C182"/>
<rect opacity="0.3" x="277.053" y="1.62939" width="16.3793" height="16.0801" rx="2.72988" fill="#11C182"/>
<rect opacity="0.3" x="276.371" y="1.62939" width="16.3793" height="16.0801" rx="2.72988" fill="#11C182"/>
<rect opacity="0.3" x="264.086" y="1.62939" width="16.3793" height="16.0801" rx="2.72988" fill="#11C182"/>
<rect opacity="0.3" x="263.882" y="1.80957" width="16.3793" height="16.0801" rx="2.72988" fill="#11C182"/>
<rect opacity="0.3" x="262.721" y="1.62939" width="16.3793" height="16.0801" rx="2.72988" fill="#11C182"/>
<rect opacity="0.3" x="262.039" y="1.62939" width="16.3793" height="16.0801" rx="2.72988" fill="#11C182"/>
<rect opacity="0.3" x="257.261" y="1.62939" width="16.3793" height="16.0801" rx="2.72988" fill="#11C182"/>
<rect opacity="0.3" x="254.531" y="1.62939" width="16.3793" height="16.0801" rx="2.72988" fill="#11C182"/>
<rect opacity="0.3" x="254.531" y="1.62939" width="16.3793" height="16.0801" rx="2.72988" fill="#11C182"/>
<rect opacity="0.3" x="250.437" y="1.62939" width="16.3793" height="16.0801" rx="2.72988" fill="#11C182"/>
<rect opacity="0.3" x="249.072" y="1.62939" width="16.3793" height="16.0801" rx="2.72988" fill="#11C182"/>
<rect opacity="0.3" x="244.977" y="1.62939" width="16.3793" height="16.0801" rx="2.72988" fill="#11C182"/>
<rect opacity="0.3" x="244.294" y="1.62939" width="16.3793" height="16.0801" rx="2.72988" fill="#11C182"/>
<rect opacity="0.3" x="242.247" y="1.62939" width="16.3793" height="16.0801" rx="2.72988" fill="#11C182"/>
<rect opacity="0.3" x="242.247" y="1.62939" width="16.3793" height="16.0801" rx="2.72988" fill="#11C182"/>
<rect opacity="0.3" x="232.01" y="1.62939" width="16.3793" height="16.0801" rx="2.72988" fill="#11C182"/>
<rect opacity="0.3" x="225.868" y="1.62939" width="16.3793" height="16.0801" rx="2.72988" fill="#11C182"/>
<rect opacity="0.3" x="223.82" y="1.62939" width="16.3793" height="16.0801" rx="2.72988" fill="#11C182"/>
<rect opacity="0.3" x="223.82" y="1.62939" width="16.3793" height="16.0801" rx="2.72988" fill="#11C182"/>
<rect opacity="0.3" x="214.266" y="1.62939" width="16.3793" height="16.0801" rx="2.72988" fill="#11C182"/>
<rect opacity="0.3" x="201.981" y="1.62939" width="16.3793" height="16.0801" rx="2.72988" fill="#11C182"/>
<rect opacity="0.3" x="201.299" y="1.62939" width="16.3793" height="16.0801" rx="2.72988" fill="#11C182"/>
<rect opacity="0.3" x="199.251" y="1.62939" width="16.3793" height="16.0801" rx="2.72988" fill="#11C182"/>
<rect opacity="0.3" x="197.886" y="1.62939" width="16.3793" height="16.0801" rx="2.72988" fill="#11C182"/>
<rect opacity="0.3" x="195.839" y="1.62939" width="16.3793" height="16.0801" rx="2.72988" fill="#11C182"/>
<rect opacity="0.3" x="193.792" y="1.62939" width="16.3793" height="16.0801" rx="2.72988" fill="#11C182"/>
<rect opacity="0.3" x="189.697" y="1.62939" width="16.3793" height="16.0801" rx="2.72988" fill="#11C182"/>
<rect opacity="0.3" x="181.507" y="1.62939" width="16.3793" height="16.0801" rx="2.72988" fill="#11C182"/>
<rect opacity="0.3" x="163.763" y="1.62939" width="16.3793" height="16.0801" rx="2.72988" fill="#11C182"/>
<rect opacity="0.5" x="644.223" y="1.62939" width="16.3793" height="16.0801" rx="2.72988" fill="#E8FC00"/>
<rect opacity="0.5" x="638.763" y="1.62939" width="16.3793" height="16.0801" rx="2.72988" fill="#E8FC00"/>
<rect opacity="0.5" x="614.194" y="1.62939" width="16.3793" height="16.0801" rx="2.72988" fill="#E8FC00"/>
<rect opacity="0.5" x="593.72" y="1.62939" width="16.3793" height="16.0801" rx="2.72988" fill="#E8FC00"/>
<rect opacity="0.5" x="588.26" y="1.62939" width="16.3793" height="16.0801" rx="2.72988" fill="#E8FC00"/>
<rect opacity="0.5" x="556.184" y="1.62939" width="16.3793" height="16.0801" rx="2.72988" fill="#E8FC00"/>
<rect opacity="0.5" x="87.326" y="0.289551" width="16.3793" height="16.0801" rx="2.72988" fill="#E8FC00"/>
</svg>
