<svg width="10" height="11" viewBox="0 0 10 11" fill="none" xmlns="http://www.w3.org/2000/svg">
<g clip-path="url(#clip0_6127_25)">
<path d="M4.99999 0.0498047C4.94194 0.0498859 4.88472 0.0636112 4.83295 0.089873C4.78118 0.116135 4.73631 0.154198 4.70196 0.200991C4.69822 0.205725 4.69461 0.210549 4.69111 0.215459C3.81662 1.34076 1.66666 4.87331 1.66666 6.71647C1.66666 8.55758 3.15888 10.0498 4.99999 10.0498C6.8411 10.0498 8.33332 8.55758 8.33332 6.71647C8.33332 4.87538 6.18814 1.34997 5.31177 0.220522C5.31187 0.220651 5.31167 0.220394 5.31177 0.220522C5.30738 0.21411 5.3028 0.207115 5.29802 0.200991C5.26367 0.154198 5.2188 0.116135 5.16703 0.089873C5.11526 0.0636112 5.05804 0.0498859 4.99999 0.0498047ZM6.29629 7.45721C6.60295 7.45721 6.85184 7.7061 6.85184 8.01277C6.85184 8.31944 6.60295 8.56832 6.29629 8.56832C5.98962 8.56832 5.74073 8.31944 5.74073 8.01277C5.74073 7.7061 5.98962 7.45721 6.29629 7.45721Z" fill="#E8FC00"/>
<path d="M6.29629 7.45721C6.60295 7.45721 6.85184 7.7061 6.85184 8.01277C6.85184 8.31944 6.60295 8.56832 6.29629 8.56832C5.98962 8.56832 5.74073 8.31944 5.74073 8.01277C5.74073 7.7061 5.98962 7.45721 6.29629 7.45721Z" fill="#E8FC00"/>
</g>
<defs>
<clipPath id="clip0_6127_25">
<rect width="10" height="10" fill="white" transform="translate(0 0.0498047)"/>
</clipPath>
</defs>
</svg>
