<svg width="10" height="11" viewBox="0 0 10 11" fill="none" xmlns="http://www.w3.org/2000/svg">
<g clip-path="url(#clip0_6127_23)">
<path d="M4.22957 0.207031C4.04709 0.207031 3.89938 0.354734 3.89938 0.537216V0.977463C3.89938 1.10508 3.97239 1.21441 4.07823 1.26938C3.19822 1.63224 2.57864 2.49893 2.57864 3.50974V3.53554V3.61894C2.57864 3.88463 2.76795 4.11818 3.01889 4.16925L3.01717 6.82234C2.76711 6.87429 2.57864 7.09579 2.57864 7.36104V8.68178C2.57864 9.35051 3.12059 9.89246 3.78932 9.89246H6.21068C6.87941 9.89246 7.42136 9.35051 7.42136 8.68178V7.36104C7.42136 7.09535 7.23205 6.87298 6.98111 6.82191V6.81073H4.22957C4.04709 6.81073 3.89938 6.66303 3.89938 6.48055C3.89938 6.29806 4.04709 6.15036 4.22957 6.15036H6.98111V4.82962H4.22957C4.04709 4.82962 3.89938 4.68192 3.89938 4.49944C3.89938 4.31695 4.04709 4.16925 4.22957 4.16925H6.98111C7.23205 4.11818 7.42136 3.88463 7.42136 3.61894V3.58928C7.42136 2.56391 6.8032 1.65319 5.91188 1.27497C6.02324 1.22193 6.10062 1.10912 6.10062 0.977463V0.537216C6.10062 0.354734 5.95291 0.207031 5.77043 0.207031H4.22957Z" fill="#11C182"/>
</g>
<defs>
<clipPath id="clip0_6127_23">
<rect width="10" height="10" fill="white" transform="translate(0 0.0498047)"/>
</clipPath>
</defs>
</svg>
