<svg width="10" height="11" viewBox="0 0 10 11" fill="none" xmlns="http://www.w3.org/2000/svg">
<rect y="0.751953" width="10" height="10" rx="0.686508" fill="#FF68DE"/>
<g clip-path="url(#clip0_6127_7)">
<path d="M4.61675 6.62833V7.35125H3.86704H3.76704V7.45125V8.01772V8.11772H3.86704H4.61675V8.86743V8.96743H4.71675H5.28323H5.38323V8.86743V8.11772H6.13293H6.23293V8.01772V7.45125V7.35125H6.13293H5.38323V6.62833C6.33992 6.445 7.08264 5.63366 7.08264 4.61889C7.08264 3.47202 6.14685 2.53623 4.99999 2.53623C3.85312 2.53623 2.91733 3.47202 2.91733 4.61889C2.91733 5.63366 3.66006 6.445 4.61675 6.62833ZM4.99999 3.3027C5.73025 3.3027 6.31617 3.88862 6.31617 4.61889C6.31617 5.34915 5.73025 5.93507 4.99999 5.93507C4.26973 5.93507 3.68381 5.34915 3.68381 4.61889C3.68381 3.88862 4.26973 3.3027 4.99999 3.3027Z" fill="black" stroke="black" stroke-width="0.2"/>
</g>
<defs>
<clipPath id="clip0_6127_7">
<rect width="6.79767" height="6.79767" fill="white" transform="translate(1.60117 2.35303)"/>
</clipPath>
</defs>
</svg>
