<svg width="697" height="7" viewBox="0 0 697 7" fill="none" xmlns="http://www.w3.org/2000/svg">
<line x1="0.387939" y1="0.63446" x2="0.387939" y2="6.63446" stroke="#A1A1AA" stroke-width="0.5"/>
<line x1="8.77344" y1="2.13446" x2="8.77344" y2="5.13446" stroke="#A1A1AA" stroke-width="0.5"/>
<line x1="17.1591" y1="2.13446" x2="17.1591" y2="5.13446" stroke="#A1A1AA" stroke-width="0.5"/>
<line x1="25.5446" y1="2.13446" x2="25.5446" y2="5.13446" stroke="#A1A1AA" stroke-width="0.5"/>
<line x1="33.9301" y1="2.13446" x2="33.9301" y2="5.13446" stroke="#A1A1AA" stroke-width="0.5"/>
<line x1="42.3157" y1="0.63446" x2="42.3157" y2="6.63446" stroke="#A1A1AA" stroke-width="0.5"/>
<line x1="50.7012" y1="2.13446" x2="50.7012" y2="5.13446" stroke="#A1A1AA" stroke-width="0.5"/>
<line x1="59.0867" y1="2.13446" x2="59.0867" y2="5.13446" stroke="#A1A1AA" stroke-width="0.5"/>
<line x1="67.4723" y1="2.13446" x2="67.4723" y2="5.13446" stroke="#A1A1AA" stroke-width="0.5"/>
<line x1="75.8578" y1="2.13446" x2="75.8578" y2="5.13446" stroke="#A1A1AA" stroke-width="0.5"/>
<line x1="84.2434" y1="0.63446" x2="84.2434" y2="6.63446" stroke="#A1A1AA" stroke-width="0.5"/>
<line x1="92.6289" y1="2.13446" x2="92.6289" y2="5.13446" stroke="#A1A1AA" stroke-width="0.5"/>
<line x1="101.014" y1="2.13446" x2="101.014" y2="5.13446" stroke="#A1A1AA" stroke-width="0.5"/>
<line x1="117.786" y1="0.63446" x2="117.786" y2="6.63446" stroke="#A1A1AA" stroke-width="0.5"/>
<line x1="126.171" y1="2.13446" x2="126.171" y2="5.13446" stroke="#A1A1AA" stroke-width="0.5"/>
<line x1="134.557" y1="2.13446" x2="134.557" y2="5.13446" stroke="#A1A1AA" stroke-width="0.5"/>
<line x1="142.942" y1="2.13446" x2="142.942" y2="5.13446" stroke="#A1A1AA" stroke-width="0.5"/>
<line x1="151.328" y1="2.13446" x2="151.328" y2="5.13446" stroke="#A1A1AA" stroke-width="0.5"/>
<line x1="159.713" y1="0.63446" x2="159.713" y2="6.63446" stroke="#A1A1AA" stroke-width="0.5"/>
<line x1="168.099" y1="2.13446" x2="168.099" y2="5.13446" stroke="#A1A1AA" stroke-width="0.5"/>
<line x1="176.484" y1="2.13446" x2="176.484" y2="5.13446" stroke="#A1A1AA" stroke-width="0.5"/>
<line x1="184.87" y1="2.13446" x2="184.87" y2="5.13446" stroke="#A1A1AA" stroke-width="0.5"/>
<line x1="193.255" y1="2.13446" x2="193.255" y2="5.13446" stroke="#A1A1AA" stroke-width="0.5"/>
<line x1="201.641" y1="0.63446" x2="201.641" y2="6.63446" stroke="#A1A1AA" stroke-width="0.5"/>
<line x1="210.026" y1="2.13446" x2="210.026" y2="5.13446" stroke="#A1A1AA" stroke-width="0.5"/>
<line x1="218.412" y1="2.13446" x2="218.412" y2="5.13446" stroke="#A1A1AA" stroke-width="0.5"/>
<line x1="226.798" y1="2.13446" x2="226.798" y2="5.13446" stroke="#A1A1AA" stroke-width="0.5"/>
<line x1="235.183" y1="2.13446" x2="235.183" y2="5.13446" stroke="#A1A1AA" stroke-width="0.5"/>
<line x1="243.569" y1="0.63446" x2="243.569" y2="6.63446" stroke="#A1A1AA" stroke-width="0.5"/>
<line x1="251.954" y1="2.13446" x2="251.954" y2="5.13446" stroke="#A1A1AA" stroke-width="0.5"/>
<line x1="260.34" y1="2.13446" x2="260.34" y2="5.13446" stroke="#A1A1AA" stroke-width="0.5"/>
<line x1="268.725" y1="2.13446" x2="268.725" y2="5.13446" stroke="#A1A1AA" stroke-width="0.5"/>
<line x1="277.111" y1="2.13446" x2="277.111" y2="5.13446" stroke="#A1A1AA" stroke-width="0.5"/>
<line x1="285.496" y1="0.63446" x2="285.496" y2="6.63446" stroke="#A1A1AA" stroke-width="0.5"/>
<line x1="293.882" y1="2.13446" x2="293.882" y2="5.13446" stroke="#A1A1AA" stroke-width="0.5"/>
<line x1="302.267" y1="2.13446" x2="302.267" y2="5.13446" stroke="#A1A1AA" stroke-width="0.5"/>
<line x1="310.653" y1="2.13446" x2="310.653" y2="5.13446" stroke="#A1A1AA" stroke-width="0.5"/>
<line x1="319.038" y1="2.13446" x2="319.038" y2="5.13446" stroke="#A1A1AA" stroke-width="0.5"/>
<line x1="327.424" y1="0.63446" x2="327.424" y2="6.63446" stroke="#A1A1AA" stroke-width="0.5"/>
<line x1="335.81" y1="2.13446" x2="335.81" y2="5.13446" stroke="#A1A1AA" stroke-width="0.5"/>
<line x1="344.195" y1="2.13446" x2="344.195" y2="5.13446" stroke="#A1A1AA" stroke-width="0.5"/>
<line x1="352.581" y1="2.13446" x2="352.581" y2="5.13446" stroke="#A1A1AA" stroke-width="0.5"/>
<line x1="360.966" y1="2.13446" x2="360.966" y2="5.13446" stroke="#A1A1AA" stroke-width="0.5"/>
<line x1="369.352" y1="0.63446" x2="369.352" y2="6.63446" stroke="#A1A1AA" stroke-width="0.5"/>
<line x1="377.737" y1="2.13446" x2="377.737" y2="5.13446" stroke="#A1A1AA" stroke-width="0.5"/>
<line x1="386.123" y1="2.13446" x2="386.123" y2="5.13446" stroke="#A1A1AA" stroke-width="0.5"/>
<line x1="394.508" y1="2.13446" x2="394.508" y2="5.13446" stroke="#A1A1AA" stroke-width="0.5"/>
<line x1="402.894" y1="2.13446" x2="402.894" y2="5.13446" stroke="#A1A1AA" stroke-width="0.5"/>
<line x1="411.279" y1="0.63446" x2="411.279" y2="6.63446" stroke="#A1A1AA" stroke-width="0.5"/>
<line x1="419.665" y1="2.13446" x2="419.665" y2="5.13446" stroke="#A1A1AA" stroke-width="0.5"/>
<line x1="428.05" y1="2.13446" x2="428.05" y2="5.13446" stroke="#A1A1AA" stroke-width="0.5"/>
<line x1="436.436" y1="2.13446" x2="436.436" y2="5.13446" stroke="#A1A1AA" stroke-width="0.5"/>
<line x1="444.821" y1="2.13446" x2="444.821" y2="5.13446" stroke="#A1A1AA" stroke-width="0.5"/>
<line x1="453.207" y1="0.63446" x2="453.207" y2="6.63446" stroke="#A1A1AA" stroke-width="0.5"/>
<line x1="461.592" y1="2.13446" x2="461.592" y2="5.13446" stroke="#A1A1AA" stroke-width="0.5"/>
<line x1="469.978" y1="2.13446" x2="469.978" y2="5.13446" stroke="#A1A1AA" stroke-width="0.5"/>
<line x1="478.364" y1="2.13446" x2="478.364" y2="5.13446" stroke="#A1A1AA" stroke-width="0.5"/>
<line x1="486.749" y1="2.13446" x2="486.749" y2="5.13446" stroke="#A1A1AA" stroke-width="0.5"/>
<line x1="495.135" y1="0.63446" x2="495.135" y2="6.63446" stroke="#A1A1AA" stroke-width="0.5"/>
<line x1="503.52" y1="2.13446" x2="503.52" y2="5.13446" stroke="#A1A1AA" stroke-width="0.5"/>
<line x1="511.906" y1="2.13446" x2="511.906" y2="5.13446" stroke="#A1A1AA" stroke-width="0.5"/>
<line x1="520.291" y1="2.13446" x2="520.291" y2="5.13446" stroke="#A1A1AA" stroke-width="0.5"/>
<line x1="528.677" y1="2.13446" x2="528.677" y2="5.13446" stroke="#A1A1AA" stroke-width="0.5"/>
<line x1="537.062" y1="0.63446" x2="537.062" y2="6.63446" stroke="#A1A1AA" stroke-width="0.5"/>
<line x1="545.448" y1="2.13446" x2="545.448" y2="5.13446" stroke="#A1A1AA" stroke-width="0.5"/>
<line x1="553.833" y1="2.13446" x2="553.833" y2="5.13446" stroke="#A1A1AA" stroke-width="0.5"/>
<line x1="562.219" y1="2.13446" x2="562.219" y2="5.13446" stroke="#A1A1AA" stroke-width="0.5"/>
<line x1="570.605" y1="2.13446" x2="570.605" y2="5.13446" stroke="#A1A1AA" stroke-width="0.5"/>
<line x1="578.99" y1="0.63446" x2="578.99" y2="6.63446" stroke="#A1A1AA" stroke-width="0.5"/>
<line x1="595.761" y1="2.13446" x2="595.761" y2="5.13446" stroke="#A1A1AA" stroke-width="0.5"/>
<line x1="604.147" y1="2.13446" x2="604.147" y2="5.13446" stroke="#A1A1AA" stroke-width="0.5"/>
<line x1="612.532" y1="2.13446" x2="612.532" y2="5.13446" stroke="#A1A1AA" stroke-width="0.5"/>
<line x1="620.918" y1="0.63446" x2="620.918" y2="6.63446" stroke="#A1A1AA" stroke-width="0.5"/>
<line x1="629.303" y1="2.13446" x2="629.303" y2="5.13446" stroke="#A1A1AA" stroke-width="0.5"/>
<line x1="637.689" y1="2.13446" x2="637.689" y2="5.13446" stroke="#A1A1AA" stroke-width="0.5"/>
<line x1="646.075" y1="2.13446" x2="646.075" y2="5.13446" stroke="#A1A1AA" stroke-width="0.5"/>
<line x1="654.46" y1="2.13446" x2="654.46" y2="5.13446" stroke="#A1A1AA" stroke-width="0.5"/>
<line x1="662.846" y1="0.63446" x2="662.846" y2="6.63446" stroke="#A1A1AA" stroke-width="0.5"/>
<line x1="671.231" y1="2.13446" x2="671.231" y2="5.13446" stroke="#A1A1AA" stroke-width="0.5"/>
<line x1="679.617" y1="2.13446" x2="679.617" y2="5.13446" stroke="#A1A1AA" stroke-width="0.5"/>
<line x1="688.002" y1="2.13446" x2="688.002" y2="5.13446" stroke="#A1A1AA" stroke-width="0.5"/>
<line x1="696.388" y1="2.13446" x2="696.388" y2="5.13446" stroke="#A1A1AA" stroke-width="0.5"/>
</svg>
