<svg width="10" height="10" viewBox="0 0 10 10" fill="none" xmlns="http://www.w3.org/2000/svg">
<g clip-path="url(#clip0_6127_2)">
<path d="M7.04158 0.731445C7.8892 0.731445 9.63994 1.41203 9.63994 3.5154C9.63994 5.07628 8.67929 6.27579 7.84243 7.14624C6.92428 8.1017 5.43208 9.26892 5.00001 9.26892C4.56794 9.26892 3.07574 8.1017 2.1574 7.14606C1.68951 6.65942 1.1832 6.06959 0.827411 5.37138H2.21605C2.54623 5.37138 2.68153 5.06069 2.89534 4.49332C3.25391 6.03248 3.31274 6.29936 3.70083 6.29936C3.99222 6.29936 4.1123 6.11358 4.74853 5.18578H5.47421C5.60283 5.40683 5.83947 5.55698 6.11359 5.55698C6.52358 5.55698 6.85598 5.22457 6.85598 4.81459C6.85598 4.4046 6.52358 4.0722 6.11359 4.0722C5.83947 4.0722 5.60283 4.22234 5.47421 4.44339H4.62881C4.33743 4.44339 4.22347 4.64458 3.82666 5.20935C3.42911 3.44005 3.34652 3.14421 2.95844 3.14421C2.6084 3.14421 2.53212 3.38029 2.0401 4.62899H0.526558C0.421695 4.28044 0.360077 3.90961 0.360077 3.5154C0.360077 1.41203 2.11082 0.731445 2.95844 0.731445C3.98312 0.731445 4.64144 1.29251 5.00001 1.73163C5.35858 1.29251 6.0169 0.731445 7.04158 0.731445Z" fill="#FF68DE"/>
</g>
<defs>
<clipPath id="clip0_6127_2">
<rect width="10" height="10" fill="white"/>
</clipPath>
</defs>
</svg>
