<svg width="10" height="11" viewBox="0 0 10 11" fill="none" xmlns="http://www.w3.org/2000/svg">
<g clip-path="url(#clip0_6127_21)">
<path d="M2.71418 0.478027C1.98464 0.478027 1.39081 1.07186 1.39081 1.8014V9.26039C1.39081 9.45962 1.5525 9.62131 1.75173 9.62131H4.03755V7.21519H3.91724C3.71801 7.21519 3.55632 7.05349 3.55632 6.85427V5.41059C3.55632 4.81363 4.04212 4.32783 4.63908 4.32783H5.36092C5.95788 4.32783 6.44368 4.81363 6.44368 5.41059V6.85427C6.44368 7.05349 6.28198 7.21519 6.08276 7.21519H5.96245V9.62131H8.24827C8.4475 9.62131 8.60919 9.45962 8.60919 9.26039V1.8014C8.60919 1.07186 8.01536 0.478027 7.28582 0.478027H2.71418ZM5 1.9217C5.53151 1.9217 5.96245 2.35264 5.96245 2.88416C5.96245 3.41567 5.53151 3.84661 5 3.84661C4.46849 3.84661 4.03755 3.41567 4.03755 2.88416C4.03755 2.35264 4.46849 1.9217 5 1.9217ZM0.548663 2.40293C0.452942 2.40293 0.36114 2.44096 0.293455 2.50864C0.225769 2.57633 0.187744 2.66813 0.187744 2.76385C0.187744 2.85957 0.225769 2.95137 0.293455 3.01906C0.36114 3.08674 0.452942 3.12477 0.548663 3.12477C0.644385 3.12477 0.736186 3.08674 0.803872 3.01906C0.871557 2.95137 0.909583 2.85957 0.909583 2.76385C0.909583 2.66813 0.871557 2.57633 0.803872 2.50864C0.736186 2.44096 0.644385 2.40293 0.548663 2.40293ZM9.45134 2.40293C9.35561 2.40293 9.26381 2.44096 9.19613 2.50864C9.12844 2.57633 9.09042 2.66813 9.09042 2.76385C9.09042 2.85957 9.12844 2.95137 9.19613 3.01906C9.26381 3.08674 9.35561 3.12477 9.45134 3.12477C9.54706 3.12477 9.63886 3.08674 9.70655 3.01906C9.77423 2.95137 9.81226 2.85957 9.81226 2.76385C9.81226 2.66813 9.77423 2.57633 9.70655 2.50864C9.63886 2.44096 9.54706 2.40293 9.45134 2.40293ZM0.548663 3.84661C0.452942 3.84661 0.36114 3.88463 0.293455 3.95232C0.225769 4.02 0.187744 4.1118 0.187744 4.20753C0.187744 4.30325 0.225769 4.39505 0.293455 4.46273C0.36114 4.53042 0.452942 4.56845 0.548663 4.56845C0.644385 4.56845 0.736186 4.53042 0.803872 4.46273C0.871557 4.39505 0.909583 4.30325 0.909583 4.20753C0.909583 4.1118 0.871557 4.02 0.803872 3.95232C0.736186 3.88463 0.644385 3.84661 0.548663 3.84661ZM9.45134 3.84661C9.35561 3.84661 9.26381 3.88463 9.19613 3.95232C9.12844 4.02 9.09042 4.1118 9.09042 4.20753C9.09042 4.30325 9.12844 4.39505 9.19613 4.46273C9.26381 4.53042 9.35561 4.56845 9.45134 4.56845C9.54706 4.56845 9.63886 4.53042 9.70655 4.46273C9.77423 4.39505 9.81226 4.30325 9.81226 4.20753C9.81226 4.1118 9.77423 4.02 9.70655 3.95232C9.63886 3.88463 9.54706 3.84661 9.45134 3.84661ZM0.548663 5.29028C0.452942 5.29028 0.36114 5.32831 0.293455 5.39599C0.225769 5.46368 0.187744 5.55548 0.187744 5.6512C0.187744 5.74692 0.225769 5.83873 0.293455 5.90641C0.36114 5.9741 0.452942 6.01212 0.548663 6.01212C0.644385 6.01212 0.736186 5.9741 0.803872 5.90641C0.871557 5.83873 0.909583 5.74692 0.909583 5.6512C0.909583 5.55548 0.871557 5.46368 0.803872 5.39599C0.736186 5.32831 0.644385 5.29028 0.548663 5.29028ZM9.45134 5.29028C9.35561 5.29028 9.26381 5.32831 9.19613 5.39599C9.12844 5.46368 9.09042 5.55548 9.09042 5.6512C9.09042 5.74692 9.12844 5.83873 9.19613 5.90641C9.26381 5.9741 9.35561 6.01212 9.45134 6.01212C9.54706 6.01212 9.63886 5.9741 9.70655 5.90641C9.77423 5.83873 9.81226 5.74692 9.81226 5.6512C9.81226 5.55548 9.77423 5.46368 9.70655 5.39599C9.63886 5.32831 9.54706 5.29028 9.45134 5.29028ZM0.548663 6.73396C0.452942 6.73396 0.36114 6.77199 0.293455 6.83967C0.225769 6.90736 0.187744 6.99916 0.187744 7.09488C0.187744 7.1906 0.225769 7.2824 0.293455 7.35009C0.36114 7.41777 0.452942 7.4558 0.548663 7.4558C0.644385 7.4558 0.736186 7.41777 0.803872 7.35009C0.871557 7.2824 0.909583 7.1906 0.909583 7.09488C0.909583 6.99916 0.871557 6.90736 0.803872 6.83967C0.736186 6.77199 0.644385 6.73396 0.548663 6.73396ZM9.45134 6.73396C9.35561 6.73396 9.26381 6.77199 9.19613 6.83967C9.12844 6.90736 9.09042 6.99916 9.09042 7.09488C9.09042 7.1906 9.12844 7.2824 9.19613 7.35009C9.26381 7.41777 9.35561 7.4558 9.45134 7.4558C9.54706 7.4558 9.63886 7.41777 9.70655 7.35009C9.77423 7.2824 9.81226 7.1906 9.81226 7.09488C9.81226 6.99916 9.77423 6.90736 9.70655 6.83967C9.63886 6.77199 9.54706 6.73396 9.45134 6.73396ZM4.75939 7.4558V9.62131H5.24061V7.4558H4.75939Z" fill="#FF68DE"/>
</g>
<defs>
<clipPath id="clip0_6127_21">
<rect width="10" height="10" fill="white" transform="translate(0 0.0498047)"/>
</clipPath>
</defs>
</svg>
