<svg width="10" height="11" viewBox="0 0 10 11" fill="none" xmlns="http://www.w3.org/2000/svg">
<g clip-path="url(#clip0_6127_19)">
<path d="M5.7179 0.0498047C4.80726 0.0498046 4.05123 0.712433 4.05123 1.58653C4.05123 2.41487 4.94878 3.12777 4.94878 3.12777C4.94878 3.12777 4.17967 3.68422 4.17967 4.666C4.17967 5.45549 4.94878 6.20423 4.94878 6.20423C4.94878 6.20423 4.17967 6.74492 4.17967 7.74246C4.17967 9.28069 5.33334 9.66525 6.10245 9.66525C7.57877 9.66525 9.17891 8.368 9.17891 4.79969C9.17891 1.23138 7.25613 0.0498047 5.7179 0.0498047ZM3.38501 2.21444C2.5909 2.55093 1.48776 3.32581 1.48776 5.05056C1.48776 6.26076 2.25688 8.2097 2.25688 10.0498H3.41055C3.41055 8.78115 3.02599 8.12734 3.02599 7.10403C3.02599 6.79831 3.42307 6.47112 3.91453 6.1877C3.91953 6.1804 3.92417 6.17248 3.92955 6.16517C3.67228 5.78254 3.41055 5.25014 3.41055 4.666C3.41055 4.04994 3.63118 3.53079 3.89575 3.14354C3.69848 2.89435 3.50077 2.57708 3.38501 2.21444Z" fill="#E8FC00"/>
</g>
<defs>
<clipPath id="clip0_6127_19">
<rect width="10" height="10" fill="white" transform="translate(0 0.0498047)"/>
</clipPath>
</defs>
</svg>
