<svg width="10" height="11" viewBox="0 0 10 11" fill="none" xmlns="http://www.w3.org/2000/svg">
<g clip-path="url(#clip0_6127_17)">
<path d="M9.54503 0.0498125C9.5311 0.0497647 9.51718 0.0503572 9.50331 0.0515879C8.98253 0.0571857 7.56691 0.183635 6.68928 0.373825C6.99107 0.870144 7.72701 2.30718 7.72701 4.52562V5.61927C8.66829 4.99296 9.99953 3.54293 9.99953 0.531836L9.99776 0.530061C9.99859 0.521498 9.99918 0.512913 9.99953 0.504317C9.99954 0.384692 9.95239 0.269887 9.8683 0.184803C9.78421 0.0997178 9.66997 0.0512144 9.55035 0.0498125C9.54858 0.0498021 9.5468 0.0498021 9.54503 0.0498125ZM5.45448 0.504317C5.40274 0.504488 5.3514 0.513495 5.30269 0.530948C3.29768 0.95043 0.000427246 2.44273 0.000427246 5.86694C0.000427246 7.79495 0.909437 10.0498 0.909437 10.0498C3.94144 10.0498 5.97257 7.84902 6.63069 6.96592L6.63247 6.96148C6.75247 6.80373 6.81762 6.61108 6.818 6.41288V4.52562C6.818 2.64897 6.27051 1.42031 5.84419 0.724468H5.8433C5.80294 0.657395 5.74593 0.601885 5.67781 0.563315C5.60969 0.524745 5.53277 0.504423 5.45448 0.504317Z" fill="#11C182"/>
</g>
<defs>
<clipPath id="clip0_6127_17">
<rect width="10" height="10" fill="white" transform="translate(0 0.0498047)"/>
</clipPath>
</defs>
</svg>
