<svg width="11" height="11" viewBox="0 0 11 11" fill="none" xmlns="http://www.w3.org/2000/svg">
<rect x="0.439209" y="0.450684" width="10" height="10" rx="0.686508" fill="#11C182"/>
<g clip-path="url(#clip0_6127_32)">
<path d="M6.54177 2.4673H6.50011L6.47065 2.49676L6.11458 2.85282L6.04347 2.92394L6.11458 2.99505L6.68189 3.56236L6.03564 4.2086C5.71057 4.00299 5.3337 3.89157 4.93946 3.89157C4.38969 3.89157 3.87251 4.10598 3.48371 4.49477C3.09491 4.88357 2.88051 5.40076 2.88051 5.95052C2.88051 6.50062 3.0949 7.01784 3.48374 7.40631C3.8722 7.79511 4.38939 8.00947 4.93946 8.00947C5.48952 8.00947 6.00671 7.79511 6.39517 7.40631C6.78402 7.01784 6.99841 6.50062 6.99841 5.95052C6.99841 5.55628 6.88699 5.17941 6.68138 4.85434L7.32762 4.20809L7.89493 4.7754L7.96604 4.84651L8.03715 4.7754L8.39322 4.41933L8.42268 4.38987V4.34821V2.56787V2.4673H8.32211H6.54177ZM4.93946 4.80485C5.24574 4.80485 5.53297 4.92367 5.74942 5.14045C5.96602 5.35739 6.08513 5.64435 6.08513 5.95052C6.08513 6.25677 5.96634 6.54368 5.74947 6.76054C5.31803 7.19199 4.56089 7.19199 4.12944 6.76054C3.91287 6.54361 3.79379 6.25667 3.79379 5.95052C3.79379 5.64435 3.91289 5.35739 4.12949 5.14045L4.05833 5.06939L4.12939 5.14056C4.34632 4.92396 4.63328 4.80485 4.93946 4.80485Z" fill="black" stroke="black" stroke-width="0.201143"/>
</g>
<defs>
<clipPath id="clip0_6127_32">
<rect width="6.79767" height="6.79767" fill="white" transform="translate(2.04034 2.05176)"/>
</clipPath>
</defs>
</svg>
