<svg width="10" height="11" viewBox="0 0 10 11" fill="none" xmlns="http://www.w3.org/2000/svg">
<g clip-path="url(#clip0_6127_15)">
<path d="M7.06791 0.12793L6.30165 0.70169C6.30165 0.70169 6.51371 0.98696 6.62404 1.4287C6.72322 1.82576 6.74122 2.29833 6.42033 2.82199C5.28174 1.89469 4.18296 1.85287 4.13183 1.85201L3.85243 1.84641L3.71039 2.0875L3.70852 2.08657C3.04348 3.2157 2.49327 4.17752 2.03396 4.99088C2.4215 5.22053 3.03458 5.64168 3.68048 6.30193L2.99085 6.97101C2.43585 6.40166 1.90527 6.03378 1.57514 5.83283C-0.329074 9.33983 -0.0661535 9.6029 0.149147 9.82299C0.225698 9.89476 0.302362 9.97157 0.503309 9.97157C1.00089 9.97157 2.24941 9.50247 6.01477 7.34946C5.81861 7.02891 5.47458 6.55536 4.91958 6.02907L5.57931 5.33009C6.21565 5.93293 6.60827 6.48359 6.84271 6.86635C7.17284 6.67975 7.15845 6.68917 7.52206 6.47387L7.523 6.472C7.75122 6.33899 7.88464 6.26081 7.88464 6.26081L8.1276 6.11784L8.12012 5.83563C8.11883 5.78456 8.07126 4.69756 7.15295 3.55835C8.28302 2.91775 9.30502 3.57517 9.30502 3.57517L9.80589 2.76031C9.80589 2.76031 9.16825 2.38938 8.2986 2.35008L9.41529 1.2334L8.73874 0.556848L7.62672 1.66886C7.61365 1.50088 7.58897 1.34135 7.5529 1.19696C7.39411 0.56124 7.06791 0.12793 7.06791 0.12793Z" fill="#FF68DE"/>
</g>
<defs>
<clipPath id="clip0_6127_15">
<rect width="10" height="10" fill="white" transform="translate(0 0.0498047)"/>
</clipPath>
</defs>
</svg>
