<svg width="242" height="33" viewBox="0 0 242 33" fill="none" xmlns="http://www.w3.org/2000/svg">
<path d="M1.12551 7.8262C1.12551 -0.804051 18.5692 -2.5958 19.6631 7.73661C19.6927 8.42344 19.397 8.75193 18.8944 8.75193H14.5483C14.0456 8.75193 13.8091 8.51303 13.6909 7.97551C13.0109 3.91422 7.00905 4.83995 7.00905 7.8262C7.00905 12.4847 20.1066 9.05056 20.1066 17.8301C20.1066 27.5653 1.00725 27.8042 0.00202424 17.4419C-0.0275413 16.8148 0.268114 16.546 0.800293 16.546H5.14643C5.61947 16.546 5.88556 16.8148 6.00383 17.3822C6.74296 21.4435 14.0161 21.2643 14.0161 17.8301C14.0161 13.4702 1.12551 16.546 1.12551 7.8262ZM37.432 2.09261C37.432 1.52522 37.6685 1.19673 38.3189 1.19673H42.4581C43.079 1.19673 43.3746 1.52522 43.3746 2.09261V13.7688C43.3746 19.5621 39.7972 24.9075 32.7015 24.9075C25.6058 24.9075 21.9988 19.5621 21.9988 13.7688L21.9692 2.09261C21.9692 1.52522 22.2944 1.19673 22.8857 1.19673H27.084C27.764 1.19673 28.0006 1.52522 28.0006 2.09261L28.0301 13.7688C28.0301 18.1586 30.2475 19.5323 32.7015 19.5323C35.1554 19.5323 37.4024 18.1586 37.4024 13.7688L37.432 2.09261ZM88.9942 10.3346H77.7593C77.7593 7.97551 80.0359 5.22816 83.6724 5.22816C87.309 5.22816 88.9942 7.97551 88.9942 10.3346ZM94.9073 13.8285V12.9924C94.9073 6.27335 91.0934 0.480034 83.5246 0.480034C77.9071 0.480034 73.8862 4.2427 72.408 9.17001C71.7575 11.3201 71.6688 13.6494 72.1419 15.8891C73.3245 21.3837 77.5524 25.5645 83.5246 25.5645C84.4707 25.5645 92.276 25.5645 94.6708 17.86C94.8186 17.3523 94.6116 17.1731 94.1977 17.1731H89.4672C89.1716 17.1731 88.9646 17.3225 88.8168 17.6211C88.3438 18.6364 87.102 20.6372 83.5246 20.6372C80.3611 20.6372 77.7593 17.7704 77.7593 14.7841H93.9908C94.5821 14.7841 94.9073 14.4258 94.9073 13.8285ZM217.575 10.3944H207.168C207.168 8.09496 209.089 5.40734 212.667 5.40734C216.244 5.40734 217.575 8.09496 217.575 10.3944ZM223.931 13.8285V12.9924C223.931 6.27335 220.088 0.480034 212.519 0.480034C206.901 0.480034 202.881 4.21284 201.402 9.17001C200.722 11.3201 200.634 13.6494 201.136 15.8891C202.289 21.3837 206.547 25.5645 212.519 25.5645C213.465 25.5645 221.27 25.5645 223.695 17.8898C223.842 17.3523 223.635 17.1731 223.192 17.1731H218.491C218.166 17.1731 217.959 17.3225 217.811 17.6211C217.338 18.6364 216.096 20.667 212.519 20.667C209.355 20.667 207.049 17.8003 207.049 14.7841H222.985C223.606 14.7841 223.931 14.4258 223.931 13.8285ZM239.778 1.19673C240.606 1.19673 241.02 1.67453 241.02 2.54054V6.03445C241.02 6.93032 240.547 7.31853 239.66 7.31853C234.486 7.31853 232.003 9.76725 232.003 16.0682V23.9818C232.003 24.5492 231.648 24.8478 231.145 24.8478H226.74C226.237 24.8478 225.942 24.5492 225.942 23.9818V16.0682C225.942 10.6333 227.449 1.19673 239.778 1.19673ZM185.141 1.19673H180.381C180.056 1.19673 179.938 1.31618 179.819 1.67453L175.03 16.0085L171.305 1.67453C171.216 1.31618 171.068 1.19673 170.743 1.19673H165.155C164.682 1.19673 164.741 1.49536 164.83 1.82384L170.565 24.2207C170.684 24.7283 170.891 24.8478 171.452 24.8478H177.395C177.839 24.8478 178.105 24.6686 178.252 24.1908L182.776 10.2152L187.27 24.1908C187.418 24.6686 187.713 24.8478 188.127 24.8478H194.1C194.661 24.8478 194.868 24.7283 194.987 24.2207L200.722 1.82384C200.811 1.49536 200.87 1.19673 200.367 1.19673H194.809C194.454 1.19673 194.307 1.31618 194.218 1.67453L190.493 16.0085L185.733 1.67453C185.614 1.31618 185.466 1.19673 185.141 1.19673ZM146.558 12.9924C146.558 8.78179 148.805 6.06431 152.383 6.06431C155.96 6.06431 158.532 8.78179 158.532 12.9924C158.532 17.203 155.871 19.9802 152.383 19.9802C148.894 19.9802 146.558 17.2329 146.558 12.9924ZM152.383 0.480034C145.405 0.480034 140.379 6.27335 140.379 12.9924C140.379 19.7114 145.405 25.5645 152.383 25.5645C159.36 25.5645 164.711 19.8906 164.711 12.9924C164.711 6.09417 159.094 0.480034 152.383 0.480034ZM110.932 1.19673C111.76 1.19673 112.174 1.67453 112.174 2.54054V6.03445C112.174 6.93032 111.701 7.31853 110.814 7.31853C105.64 7.31853 103.156 9.76725 103.156 16.0682V23.9818C103.156 24.5492 102.801 24.8478 102.299 24.8478H97.8934C97.3908 24.8478 97.0951 24.5492 97.0951 23.9818V16.0682C97.0951 10.6333 98.603 1.19673 110.932 1.19673ZM120.275 12.5146C120.275 16.6655 122.492 19.383 126.01 19.383C129.528 19.383 132.012 16.6953 132.012 12.5146C132.012 8.33386 129.44 5.70596 126.01 5.70596C122.581 5.70596 120.275 8.39358 120.275 12.5146ZM120.6 22.4289V32.1342C120.6 32.7016 120.275 33.0002 119.772 33.0002H115.337C114.834 33.0002 114.539 32.7016 114.539 32.1342V2.51068C114.539 1.64467 115.012 1.19673 115.869 1.19673H119.535C120.422 1.19673 120.6 1.64467 120.6 2.51068V4.66078H120.925C125.448 -3.93961 138.339 0.718933 138.339 12.5146C138.339 25.1763 125.242 27.4458 120.6 22.4289ZM51.6825 12.5146C51.6825 16.6655 53.9295 19.383 57.4182 19.383C60.907 19.383 63.42 16.6953 63.42 12.5146C63.42 8.33386 60.8774 5.70596 57.4182 5.70596C53.9591 5.70596 51.6825 8.39358 51.6825 12.5146ZM51.9486 22.4289V32.1342C51.9486 32.7016 51.5938 33.0002 51.0912 33.0002H46.686C46.1538 33.0002 45.8877 32.7016 45.8877 32.1342V2.51068C45.8877 1.64467 46.3312 1.19673 47.1886 1.19673H50.8843C51.7712 1.19673 51.9486 1.64467 51.9486 2.51068V4.66078H52.2443C56.7678 -3.93961 69.6584 0.718933 69.6584 12.5146C69.6584 25.1763 56.5608 27.4458 51.9486 22.4289Z" fill="black"/>
</svg>
