<svg width="174" height="29" viewBox="0 0 174 29" fill="none" xmlns="http://www.w3.org/2000/svg">
<path d="M0.811668 9.97065C0.811668 3.74691 13.3912 2.45478 14.1801 9.90604C14.2014 10.4014 13.9882 10.6382 13.6258 10.6382H10.4915C10.1291 10.6382 9.9585 10.466 9.87321 10.0783C9.38282 7.14951 5.05461 7.8171 5.05461 9.97065C5.05461 13.3302 14.4999 10.8536 14.4999 17.185C14.4999 24.2056 0.726383 24.3778 0.00145979 16.905C-0.0198615 16.4528 0.193351 16.259 0.577134 16.259H3.71136C4.0525 16.259 4.2444 16.4528 4.32968 16.862C4.86271 19.7908 10.1077 19.6616 10.1077 17.185C10.1077 14.0408 0.811668 16.259 0.811668 9.97065ZM26.9942 5.83584C26.9942 5.42667 27.1648 5.18978 27.6338 5.18978H30.6188C31.0666 5.18978 31.2798 5.42667 31.2798 5.83584V14.2562C31.2798 18.4341 28.6999 22.2889 23.5828 22.2889C18.4657 22.2889 15.8645 18.4341 15.8645 14.2562L15.8432 5.83584C15.8432 5.42667 16.0777 5.18978 16.5041 5.18978H19.5318C20.0221 5.18978 20.1927 5.42667 20.1927 5.83584L20.214 14.2562C20.214 17.4219 21.8131 18.4125 23.5828 18.4125C25.3525 18.4125 26.9729 17.4219 26.9729 14.2562L26.9942 5.83584ZM64.1785 11.7796H56.0764C56.0764 10.0783 57.7182 8.09706 60.3407 8.09706C62.9632 8.09706 64.1785 10.0783 64.1785 11.7796ZM68.4428 14.2993V13.6963C68.4428 8.8508 65.6923 4.67293 60.2341 4.67293C56.183 4.67293 53.2833 7.3864 52.2173 10.9397C51.7482 12.4903 51.6842 14.1701 52.0254 15.7852C52.8782 19.7477 55.9272 22.7627 60.2341 22.7627C60.9164 22.7627 66.5452 22.7627 68.2722 17.2065C68.3788 16.8404 68.2295 16.7112 67.9311 16.7112H64.5196C64.3064 16.7112 64.1572 16.8189 64.0506 17.0343C63.7094 17.7665 62.8139 19.2093 60.2341 19.2093C57.9527 19.2093 56.0764 17.1419 56.0764 14.9884H67.7818C68.2082 14.9884 68.4428 14.73 68.4428 14.2993ZM156.905 11.8227H149.4C149.4 10.1645 150.786 8.22628 153.365 8.22628C155.945 8.22628 156.905 10.1645 156.905 11.8227ZM161.489 14.2993V13.6963C161.489 8.8508 158.717 4.67293 153.259 4.67293C149.208 4.67293 146.308 7.36486 145.242 10.9397C144.752 12.4903 144.688 14.1701 145.05 15.7852C145.882 19.7477 148.952 22.7627 153.259 22.7627C153.941 22.7627 159.57 22.7627 161.318 17.2281C161.425 16.8404 161.276 16.7112 160.956 16.7112H157.566C157.331 16.7112 157.182 16.8189 157.075 17.0343C156.734 17.7665 155.839 19.2309 153.259 19.2309C150.977 19.2309 149.314 17.1635 149.314 14.9884H160.807C161.254 14.9884 161.489 14.73 161.489 14.2993ZM172.917 5.18978C173.514 5.18978 173.812 5.53435 173.812 6.15888V8.67852C173.812 9.32458 173.471 9.60454 172.832 9.60454C169.1 9.60454 167.31 11.3704 167.31 15.9144V21.6213C167.31 22.0305 167.054 22.2458 166.691 22.2458H163.514C163.152 22.2458 162.939 22.0305 162.939 21.6213V15.9144C162.939 11.995 164.026 5.18978 172.917 5.18978ZM133.515 5.18978H130.083C129.848 5.18978 129.763 5.27592 129.677 5.53435L126.223 15.8714L123.537 5.53435C123.473 5.27592 123.366 5.18978 123.132 5.18978H119.102C118.761 5.18978 118.804 5.40514 118.868 5.64203L123.004 21.7936C123.089 22.1597 123.238 22.2458 123.644 22.2458H127.929C128.249 22.2458 128.441 22.1166 128.547 21.7721L131.81 11.6935L135.05 21.7721C135.157 22.1166 135.37 22.2458 135.669 22.2458H139.976C140.381 22.2458 140.53 22.1597 140.615 21.7936L144.752 5.64203C144.816 5.40514 144.858 5.18978 144.496 5.18978H140.487C140.231 5.18978 140.125 5.27592 140.061 5.53435L137.374 15.8714L133.942 5.53435C133.856 5.27592 133.75 5.18978 133.515 5.18978ZM105.691 13.6963C105.691 10.6598 107.311 8.70006 109.891 8.70006C112.471 8.70006 114.326 10.6598 114.326 13.6963C114.326 16.7328 112.407 18.7356 109.891 18.7356C107.375 18.7356 105.691 16.7543 105.691 13.6963ZM109.891 4.67293C104.859 4.67293 101.235 8.8508 101.235 13.6963C101.235 18.5417 104.859 22.7627 109.891 22.7627C114.923 22.7627 118.782 18.671 118.782 13.6963C118.782 8.72159 114.731 4.67293 109.891 4.67293ZM79.9989 5.18978C80.5959 5.18978 80.8944 5.53435 80.8944 6.15888V8.67852C80.8944 9.32458 80.5532 9.60454 79.9136 9.60454C76.1824 9.60454 74.3914 11.3704 74.3914 15.9144V21.6213C74.3914 22.0305 74.1355 22.2458 73.7731 22.2458H70.5962C70.2337 22.2458 70.0205 22.0305 70.0205 21.6213V15.9144C70.0205 11.995 71.1079 5.18978 79.9989 5.18978ZM86.7364 13.3517C86.7364 16.3451 88.3355 18.3049 90.8727 18.3049C93.41 18.3049 95.201 16.3667 95.201 13.3517C95.201 10.3367 93.346 8.44163 90.8727 8.44163C88.3995 8.44163 86.7364 10.3798 86.7364 13.3517ZM86.9709 20.5015V27.5005C86.9709 27.9096 86.7364 28.125 86.374 28.125H83.1758C82.8133 28.125 82.6001 27.9096 82.6001 27.5005V6.13734C82.6001 5.51281 82.9412 5.18978 83.5595 5.18978H86.2034C86.843 5.18978 86.9709 5.51281 86.9709 6.13734V7.68789H87.2055C90.4676 1.48569 99.7637 4.84522 99.7637 13.3517C99.7637 22.4827 90.3184 24.1194 86.9709 20.5015ZM37.2711 13.3517C37.2711 16.3451 38.8915 18.3049 41.4074 18.3049C43.9233 18.3049 45.7356 16.3667 45.7356 13.3517C45.7356 10.3367 43.902 8.44163 41.4074 8.44163C38.9128 8.44163 37.2711 10.3798 37.2711 13.3517ZM37.4629 20.5015V27.5005C37.4629 27.9096 37.2071 28.125 36.8446 28.125H33.6678C33.284 28.125 33.0921 27.9096 33.0921 27.5005V6.13734C33.0921 5.51281 33.4119 5.18978 34.0302 5.18978H36.6954C37.335 5.18978 37.4629 5.51281 37.4629 6.13734V7.68789H37.6762C40.9383 1.48569 50.2344 4.84522 50.2344 13.3517C50.2344 22.4827 40.7891 24.1194 37.4629 20.5015Z" fill="white"/>
</svg>
