<svg width="362" height="49" viewBox="0 0 362 49" fill="none" xmlns="http://www.w3.org/2000/svg">
<path d="M1.91871 11.3563C1.91871 -1.5522 28.0458 -4.23216 29.6843 11.2223C29.7286 12.2496 29.2858 12.7409 28.5329 12.7409H22.0233C21.2705 12.7409 20.9162 12.3836 20.7391 11.5796C19.7206 5.50504 10.7311 6.88968 10.7311 11.3563C10.7311 18.3242 30.3486 13.1876 30.3486 26.3194C30.3486 40.8806 1.74157 41.2379 0.235942 25.7388C0.191659 24.8008 0.634491 24.3988 1.43159 24.3988H7.94123C8.64976 24.3988 9.04831 24.8008 9.22545 25.6494C10.3325 31.724 21.2262 31.456 21.2262 26.3194C21.2262 19.7982 1.91871 24.3988 1.91871 11.3563ZM56.2985 2.78041C56.2985 1.93175 56.6528 1.44043 57.627 1.44043H63.8267C64.7566 1.44043 65.1995 1.93175 65.1995 2.78041V20.2448C65.1995 28.9101 59.8412 36.9053 49.2132 36.9053C38.5852 36.9053 33.1827 28.9101 33.1827 20.2448L33.1384 2.78041C33.1384 1.93175 33.6255 1.44043 34.5112 1.44043H40.7994C41.8179 1.44043 42.1722 1.93175 42.1722 2.78041L42.2165 20.2448C42.2165 26.8107 45.5377 28.8654 49.2132 28.8654C52.8887 28.8654 56.2542 26.8107 56.2542 20.2448L56.2985 2.78041ZM133.529 15.1082H116.701C116.701 11.5796 120.111 7.47034 125.558 7.47034C131.004 7.47034 133.529 11.5796 133.529 15.1082ZM142.385 20.3342V19.0835C142.385 9.03366 136.673 0.36844 125.336 0.36844C116.922 0.36844 110.9 5.99636 108.686 13.3663C107.711 16.5822 107.579 20.0662 108.287 23.4161C110.058 31.6347 116.391 37.8879 125.336 37.8879C126.753 37.8879 138.444 37.8879 142.031 26.3641C142.252 25.6048 141.942 25.3368 141.322 25.3368H134.237C133.794 25.3368 133.484 25.5601 133.263 26.0068C132.554 27.5254 130.694 30.518 125.336 30.518C120.598 30.518 116.701 26.2301 116.701 21.7635H141.012C141.898 21.7635 142.385 21.2275 142.385 20.3342ZM326.116 15.1976H310.529C310.529 11.7583 313.407 7.73834 318.765 7.73834C324.124 7.73834 326.116 11.7583 326.116 15.1976ZM335.637 20.3342V19.0835C335.637 9.03366 329.88 0.36844 318.544 0.36844C310.13 0.36844 304.108 5.9517 301.893 13.3663C300.875 16.5822 300.742 20.0662 301.495 23.4161C303.222 31.6347 309.599 37.8879 318.544 37.8879C319.961 37.8879 331.652 37.8879 335.283 26.4088C335.504 25.6048 335.194 25.3368 334.53 25.3368H327.489C327.002 25.3368 326.692 25.5601 326.471 26.0068C325.762 27.5254 323.902 30.5627 318.544 30.5627C313.806 30.5627 310.351 26.2748 310.351 21.7635H334.22C335.15 21.7635 335.637 21.2275 335.637 20.3342ZM359.373 1.44043C360.613 1.44043 361.233 2.15508 361.233 3.4504V8.67633C361.233 10.0163 360.524 10.597 359.196 10.597C351.446 10.597 347.727 14.2596 347.727 23.6841V35.5206C347.727 36.3693 347.195 36.8159 346.442 36.8159H339.844C339.091 36.8159 338.648 36.3693 338.648 35.5206V23.6841C338.648 15.5549 340.907 1.44043 359.373 1.44043ZM277.538 1.44043H270.408C269.921 1.44043 269.744 1.61909 269.567 2.15508L262.393 23.5948L256.813 2.15508C256.68 1.61909 256.459 1.44043 255.972 1.44043H247.602C246.894 1.44043 246.982 1.88709 247.115 2.37841L255.706 35.878C255.883 36.6373 256.193 36.8159 257.034 36.8159H265.935C266.6 36.8159 266.998 36.5479 267.22 35.8333L273.995 14.9296L280.726 35.8333C280.947 36.5479 281.39 36.8159 282.01 36.8159H290.955C291.797 36.8159 292.107 36.6373 292.284 35.878L300.875 2.37841C301.008 1.88709 301.096 1.44043 300.343 1.44043H292.018C291.487 1.44043 291.265 1.61909 291.133 2.15508L285.553 23.5948L278.423 2.15508C278.246 1.61909 278.025 1.44043 277.538 1.44043ZM219.748 19.0835C219.748 12.7856 223.113 8.72099 228.472 8.72099C233.83 8.72099 237.683 12.7856 237.683 19.0835C237.683 25.3814 233.697 29.5354 228.472 29.5354C223.246 29.5354 219.748 25.4261 219.748 19.0835ZM228.472 0.36844C218.021 0.36844 210.493 9.03366 210.493 19.0835C210.493 29.1334 218.021 37.8879 228.472 37.8879C238.923 37.8879 246.938 29.4014 246.938 19.0835C246.938 8.76566 238.524 0.36844 228.472 0.36844ZM166.387 1.44043C167.627 1.44043 168.247 2.15508 168.247 3.4504V8.67633C168.247 10.0163 167.538 10.597 166.21 10.597C158.46 10.597 154.74 14.2596 154.74 23.6841V35.5206C154.74 36.3693 154.209 36.8159 153.456 36.8159H146.858C146.105 36.8159 145.662 36.3693 145.662 35.5206V23.6841C145.662 15.5549 147.921 1.44043 166.387 1.44043ZM180.38 18.3689C180.38 24.5774 183.701 28.6421 188.971 28.6421C194.241 28.6421 197.961 24.6221 197.961 18.3689C197.961 12.1156 194.108 8.185 188.971 8.185C183.834 8.185 180.38 12.2049 180.38 18.3689ZM180.867 33.198V47.7145C180.867 48.5631 180.38 49.0098 179.627 49.0098H172.985C172.232 49.0098 171.789 48.5631 171.789 47.7145V3.40573C171.789 2.11042 172.498 1.44043 173.782 1.44043H179.273C180.602 1.44043 180.867 2.11042 180.867 3.40573V6.62169H181.354C188.13 -6.24213 207.437 0.725767 207.437 18.3689C207.437 37.3073 187.82 40.7019 180.867 33.198ZM77.6431 18.3689C77.6431 24.5774 81.0086 28.6421 86.234 28.6421C91.4594 28.6421 95.2235 24.6221 95.2235 18.3689C95.2235 12.1156 91.4151 8.185 86.234 8.185C81.0529 8.185 77.6431 12.2049 77.6431 18.3689ZM78.0416 33.198V47.7145C78.0416 48.5631 77.5102 49.0098 76.7574 49.0098H70.1592C69.3621 49.0098 68.9635 48.5631 68.9635 47.7145V3.40573C68.9635 2.11042 69.6278 1.44043 70.912 1.44043H76.4474C77.7759 1.44043 78.0416 2.11042 78.0416 3.40573V6.62169H78.4844C85.2598 -6.24213 104.567 0.725767 104.567 18.3689C104.567 37.3073 84.9498 40.7019 78.0416 33.198Z" fill="black"/>
</svg>
