<svg width="10" height="10" viewBox="0 0 10 10" fill="none" xmlns="http://www.w3.org/2000/svg">
<g clip-path="url(#clip0_6127_38)">
<path d="M2.74552 0.124023C2.54834 0.124023 2.38874 0.28386 2.38874 0.480801V2.62147C2.38874 2.88334 2.61028 3.19221 2.81056 3.41864C3.22513 3.7866 3.79032 4.17713 4.25532 4.37098C4.2703 4.37621 4.2854 4.38317 4.30038 4.38817C4.33582 4.39982 4.3729 4.40536 4.41048 4.40536H5.59974C5.64446 4.40536 5.68889 4.39715 5.73028 4.38074C5.84778 4.33459 5.95743 4.2805 6.06708 4.2265C6.53375 3.97652 6.93994 3.62271 7.2884 3.30018C7.45608 3.09111 7.6108 2.84005 7.6108 2.62147V0.480801C7.6108 0.28386 7.4512 0.124023 7.25402 0.124023H2.74552ZM7.33624 3.89899C7.20709 4.01245 7.06739 4.1243 6.92326 4.23347L6.97854 4.47225L7.07842 4.90522L7.49326 6.70351C7.5199 6.8191 7.4875 6.94072 7.40639 7.0273C7.32552 7.11412 7.20684 7.15646 7.0891 7.13601C6.2697 7.00376 5.74397 7.18647 5.06086 7.57037C5.00639 7.60129 4.94612 7.61636 4.88618 7.61636C4.82077 7.61636 4.75514 7.59838 4.69758 7.56247C4.03135 7.14742 3.59777 7.04321 2.91276 7.1374C2.79621 7.15215 2.68001 7.1111 2.60104 7.02405C2.52184 6.93771 2.49033 6.81768 2.51649 6.70351L2.93599 4.88478L2.93691 4.88385L3.08511 4.24044C2.93645 4.1346 2.79187 4.02542 2.65772 3.91339C2.37539 4.57652 1.91232 5.11439 1.2097 5.59462H0.366999C0.170296 5.59462 0.010697 5.75376 0.0102213 5.95046L1.13265e-06 9.51824C-0.000236695 9.61291 0.0369871 9.70389 0.104061 9.77096C0.17066 9.83827 0.261649 9.87595 0.356314 9.87595H9.64322C9.73789 9.87595 9.8291 9.8385 9.89594 9.77142C9.96301 9.70411 10.0002 9.61291 10 9.51824L9.98931 5.95046C9.98884 5.75376 9.82924 5.59462 9.63254 5.59462H8.78983C8.08223 5.11106 7.6181 4.56902 7.33624 3.89899Z" fill="#11C182"/>
</g>
<defs>
<clipPath id="clip0_6127_38">
<rect width="10" height="10" fill="white"/>
</clipPath>
</defs>
</svg>
