<svg width="222" height="29" viewBox="0 0 222 29" fill="none" xmlns="http://www.w3.org/2000/svg">
<path d="M1.03669 6.71065C1.03669 -0.647707 17.1038 -2.17539 18.1114 6.63426C18.1386 7.21988 17.8663 7.49995 17.4033 7.49995H13.4002C12.9372 7.49995 12.7194 7.29626 12.6104 6.83796C11.9841 3.3752 6.45594 4.1645 6.45594 6.71065C6.45594 10.6826 18.5199 7.75457 18.5199 15.2402C18.5199 23.5407 0.927765 23.7443 0.0018645 14.9092C-0.0253679 14.3745 0.246956 14.1454 0.737138 14.1454H4.7403C5.17601 14.1454 5.42111 14.3745 5.53004 14.8583C6.21084 18.3211 12.91 18.1683 12.91 15.2402C12.91 11.5229 1.03669 14.1454 1.03669 6.71065ZM34.478 1.82205C34.478 1.33828 34.6959 1.05821 35.295 1.05821H39.1075C39.6794 1.05821 39.9517 1.33828 39.9517 1.82205V11.7775C39.9517 16.717 36.6566 21.2746 30.1209 21.2746C23.5851 21.2746 20.2627 16.717 20.2627 11.7775L20.2355 1.82205C20.2355 1.33828 20.5351 1.05821 21.0797 1.05821H24.9467C25.573 1.05821 25.7909 1.33828 25.7909 1.82205L25.8181 11.7775C25.8181 15.5203 27.8606 16.6915 30.1209 16.6915C32.3811 16.6915 34.4508 15.5203 34.4508 11.7775L34.478 1.82205ZM81.9713 8.84941H71.623C71.623 6.83796 73.7198 4.4955 77.0694 4.4955C80.419 4.4955 81.9713 6.83796 81.9713 8.84941ZM87.4177 11.8284V11.1155C87.4177 5.38665 83.9047 0.447134 76.9333 0.447134C71.7591 0.447134 68.0555 3.65528 66.6939 7.85641C66.0948 9.68964 66.0131 11.6756 66.4488 13.5852C67.5381 18.2701 71.4323 21.8347 76.9333 21.8347C77.8047 21.8347 84.994 21.8347 87.1999 15.2657C87.336 14.8328 87.1454 14.6801 86.7642 14.6801H82.407C82.1347 14.6801 81.944 14.8074 81.8079 15.062C81.3721 15.9277 80.2284 17.6336 76.9333 17.6336C74.0194 17.6336 71.623 15.1893 71.623 12.6432H86.5735C87.1182 12.6432 87.4177 12.3376 87.4177 11.8284ZM200.405 8.90033H190.819C190.819 6.9398 192.589 4.64827 195.884 4.64827C199.179 4.64827 200.405 6.9398 200.405 8.90033ZM206.26 11.8284V11.1155C206.26 5.38665 202.719 0.447134 195.748 0.447134C190.574 0.447134 186.87 3.62981 185.509 7.85641C184.882 9.68964 184.801 11.6756 185.264 13.5852C186.326 18.2701 190.247 21.8347 195.748 21.8347C196.619 21.8347 203.809 21.8347 206.042 15.2912C206.178 14.8328 205.987 14.6801 205.579 14.6801H201.249C200.949 14.6801 200.759 14.8074 200.623 15.062C200.187 15.9277 199.043 17.6591 195.748 17.6591C192.834 17.6591 190.71 15.2148 190.71 12.6432H205.388C205.96 12.6432 206.26 12.3376 206.26 11.8284ZM220.856 1.05821C221.619 1.05821 222 1.46559 222 2.20397V5.18296C222 5.94681 221.564 6.2778 220.747 6.2778C215.982 6.2778 213.694 8.36564 213.694 13.738V20.4853C213.694 20.9691 213.367 21.2237 212.904 21.2237H208.847C208.384 21.2237 208.111 20.9691 208.111 20.4853V13.738C208.111 9.10402 209.5 1.05821 220.856 1.05821ZM170.531 1.05821H166.146C165.847 1.05821 165.738 1.16005 165.629 1.46559L161.217 13.6871L157.786 1.46559C157.704 1.16005 157.568 1.05821 157.269 1.05821H152.122C151.686 1.05821 151.741 1.31282 151.822 1.5929L157.105 20.689C157.214 21.1218 157.405 21.2237 157.922 21.2237H163.396C163.804 21.2237 164.05 21.0709 164.186 20.6635L168.352 8.74756L172.492 20.6635C172.628 21.0709 172.9 21.2237 173.281 21.2237H178.782C179.3 21.2237 179.49 21.1218 179.599 20.689L184.882 1.5929C184.964 1.31282 185.018 1.05821 184.556 1.05821H179.436C179.109 1.05821 178.973 1.16005 178.891 1.46559L175.46 13.6871L171.075 1.46559C170.967 1.16005 170.83 1.05821 170.531 1.05821ZM134.993 11.1155C134.993 7.52541 137.062 5.20842 140.357 5.20842C143.653 5.20842 146.022 7.52541 146.022 11.1155C146.022 14.7055 143.571 17.0735 140.357 17.0735C137.144 17.0735 134.993 14.731 134.993 11.1155ZM140.357 0.447134C133.931 0.447134 129.301 5.38665 129.301 11.1155C129.301 16.8443 133.931 21.8347 140.357 21.8347C146.784 21.8347 151.713 16.9971 151.713 11.1155C151.713 5.23388 146.539 0.447134 140.357 0.447134ZM102.178 1.05821C102.94 1.05821 103.321 1.46559 103.321 2.20397V5.18296C103.321 5.94681 102.886 6.2778 102.069 6.2778C97.3031 6.2778 95.0155 8.36564 95.0155 13.738V20.4853C95.0155 20.9691 94.6888 21.2237 94.2258 21.2237H90.1682C89.7052 21.2237 89.4329 20.9691 89.4329 20.4853V13.738C89.4329 9.10402 90.8218 1.05821 102.178 1.05821ZM110.783 10.7081C110.783 14.2472 112.826 16.5642 116.066 16.5642C119.307 16.5642 121.594 14.2727 121.594 10.7081C121.594 7.14349 119.225 4.90289 116.066 4.90289C112.907 4.90289 110.783 7.19442 110.783 10.7081ZM111.083 19.1613V27.4363C111.083 27.92 110.783 28.1746 110.32 28.1746H106.235C105.772 28.1746 105.5 27.92 105.5 27.4363V2.17851C105.5 1.44013 105.936 1.05821 106.725 1.05821H110.102C110.919 1.05821 111.083 1.44013 111.083 2.17851V4.01174H111.382C115.549 -3.32116 127.422 0.650826 127.422 10.7081C127.422 21.5037 115.358 23.4388 111.083 19.1613ZM47.604 10.7081C47.604 14.2472 49.6737 16.5642 52.8871 16.5642C56.1005 16.5642 58.4153 14.2727 58.4153 10.7081C58.4153 7.14349 56.0733 4.90289 52.8871 4.90289C49.7009 4.90289 47.604 7.19442 47.604 10.7081ZM47.8491 19.1613V27.4363C47.8491 27.92 47.5223 28.1746 47.0594 28.1746H43.0018C42.5116 28.1746 42.2665 27.92 42.2665 27.4363V2.17851C42.2665 1.44013 42.675 1.05821 43.4647 1.05821H46.8688C47.6857 1.05821 47.8491 1.44013 47.8491 2.17851V4.01174H48.1214C52.288 -3.32116 64.1613 0.650826 64.1613 10.7081C64.1613 21.5037 52.0974 23.4388 47.8491 19.1613Z" fill="white"/>
</svg>
