<svg width="23" height="19" viewBox="0 0 23 19" fill="none" xmlns="http://www.w3.org/2000/svg">
<path fill-rule="evenodd" clip-rule="evenodd" d="M4.09018 18.737C4.32155 18.9123 4.57771 19 4.85866 19H11.8H19.4417C20.2349 19 20.4333 18 20.4333 18L22.1933 10L22.7568 7.95C22.8401 7.71667 22.8031 7.5 22.6457 7.3C22.4884 7.1 22.2775 7 22.0131 7H16.956L12.593 0.45C12.5104 0.316667 12.3947 0.208333 12.246 0.125C12.0972 0.0416667 11.9402 0 11.775 0C11.6097 0 11.4527 0.0416667 11.304 0.125C11.1552 0.208333 11.0395 0.316667 10.9569 0.45L6.59394 7H1.58642C1.32266 7 1.11211 7.1 0.95478 7.3C0.797448 7.5 0.760099 7.71667 0.842731 7.95L3.61917 18.05C3.70181 18.3327 3.85881 18.5617 4.09018 18.737ZM14.5762 7H8.99853L11.775 2.8L14.5762 7Z" fill="white"/>
</svg>
